<svg width="18" height="18" viewBox="0 0 18 18" fill="none" xmlns="http://www.w3.org/2000/svg">
<g clip-path="url(#clip0_10023_106181)">
<g clip-path="url(#clip1_10023_106181)">
<path d="M2.53947 15.4758C1.08748 15.4611 1.11817 15.4418 1.113 15.5113C1.10576 15.6082 1.28921 15.5347 1.33308 15.6914L1.33329 15.693C1.33772 15.8323 1.32679 17.6003 1.32608 17.7102C1.32454 17.7214 1.31213 17.7892 1.23826 17.8295C1.21689 17.8413 1.20613 17.8659 1.21218 17.8895C1.21819 17.9131 1.23946 17.9296 1.26382 17.9296H1.27497C1.49877 17.9296 1.80164 17.9361 1.97338 17.9671C2.09474 17.989 2.21347 18.0001 2.32628 18.0001C2.32635 18.0001 2.32635 18.0001 2.32635 18.0001C3.20358 18.0001 3.66606 17.3296 3.6694 16.6672C3.67228 16.0989 3.31991 15.4837 2.53947 15.4758ZM1.77577 15.6784C3.32223 15.5791 3.34775 16.7484 3.11498 17.3207C2.99317 17.6202 2.56637 17.7991 2.22401 17.7991C2.01223 17.7991 1.85761 17.7321 1.78797 17.6104L1.77577 15.6784Z" fill="white" style="fill:white;fill-opacity:1;"/>
<path d="M4.59229 16.7173C4.59229 17.5517 5.27513 17.9882 5.9496 17.9882C6.60369 17.9882 7.29883 17.5218 7.29883 16.6573C7.29883 15.0107 4.59229 14.9686 4.59229 16.7173ZM5.07692 16.7121C5.07692 16.1004 5.25315 15.6083 5.87057 15.6083C6.35489 15.6083 6.79596 16.1062 6.79596 16.6541C6.8064 17.1465 6.69703 17.7448 6.11712 17.8007C5.51718 17.7998 5.1672 17.4329 5.07709 16.7132L5.07692 16.7121Z" fill="white" style="fill:white;fill-opacity:1;"/>
<path d="M10.2294 15.4431C10.1759 15.4601 10.1111 15.4715 10.0682 15.4715C10.0239 15.4715 8.42791 15.4692 8.33203 15.4691C8.2659 15.4344 8.163 15.3923 8.14701 15.4651L8.08084 15.766C8.07532 15.7911 8.08847 15.8166 8.11213 15.8266C8.13576 15.8366 8.16321 15.8283 8.17738 15.8069C8.20614 15.7633 8.24945 15.7303 8.30964 15.7061C8.46412 15.6999 8.87882 15.6992 8.96998 15.6991L8.96049 17.725C8.96035 17.728 8.95627 17.7981 8.89095 17.8379C8.84511 17.8658 8.86493 17.9367 8.91865 17.9367C8.91904 17.9367 9.48682 17.9342 9.48724 17.9342C9.54317 17.9339 9.56089 17.858 9.51065 17.8331C9.46407 17.81 9.43935 17.7752 9.43538 17.7299C9.43317 17.6357 9.4191 16.0301 9.41622 15.6996L9.99732 15.7133C10.0025 15.7136 10.1252 15.7205 10.1686 15.8428C10.1771 15.8668 10.2017 15.8814 10.227 15.8776C10.283 15.8689 10.2726 15.8288 10.2802 15.5775C10.2924 15.55 10.3023 15.5119 10.2982 15.4856C10.2931 15.4533 10.2605 15.4333 10.2294 15.4431Z" fill="white" style="fill:white;fill-opacity:1;"/>
<path d="M13.4699 17.1866C13.327 17.1843 13.029 17.184 12.9656 17.184C12.9636 17.179 12.2514 15.4174 12.2514 15.4174C12.2321 15.3718 12.1701 15.3759 12.1529 15.4181L11.2221 17.7073C11.2218 17.7082 11.1804 17.7908 11.0795 17.8392C11.0285 17.8637 11.0462 17.9405 11.1025 17.9406C11.1053 17.9406 11.5244 17.9412 11.5244 17.9412C11.5844 17.9412 11.5981 17.8573 11.5421 17.8376C11.5125 17.8228 11.499 17.8019 11.5073 17.7699C11.5372 17.6672 11.6169 17.4442 11.6362 17.3906L12.5649 17.393L12.7475 17.8255C12.7482 17.8273 12.7501 17.8354 12.7441 17.8444C12.7131 17.8783 12.7367 17.9331 12.7827 17.9338C12.7864 17.9338 13.3124 17.9412 13.3124 17.9412C13.3438 17.9412 13.3664 17.9164 13.3664 17.888C13.3664 17.8646 13.3513 17.8447 13.3304 17.8375C13.2605 17.8038 13.2313 17.7718 13.0518 17.3913C13.2103 17.3947 13.2403 17.3233 13.4759 17.2928C13.5036 17.2892 13.5239 17.2648 13.5223 17.2369C13.5207 17.209 13.4978 17.187 13.4699 17.1866ZM12.1139 16.1446L12.4879 17.1807L11.7085 17.1897L12.1139 16.1446Z" fill="white" style="fill:white;fill-opacity:1;"/>
<path d="M16.7849 17.38C16.7337 17.4921 16.6704 17.6022 16.5123 17.6086C16.4298 17.6118 15.9911 17.6292 15.7154 17.6272C17.3682 16.3666 16.9281 15.4175 15.9434 15.4175C15.7275 15.4175 15.5105 15.4695 15.3481 15.5601C15.3324 15.5689 15.3222 15.5849 15.3209 15.6028C15.3168 15.6599 15.3278 15.7752 15.3537 15.9456C15.3574 15.9698 15.3769 15.9883 15.4012 15.9907C15.4253 15.9929 15.4483 15.9785 15.4566 15.9556C15.5516 15.6908 15.7425 15.5964 15.8895 15.5964C16.0998 15.5964 16.3196 15.7769 16.3329 16.1218C16.3625 16.8895 15.4274 17.614 15.2177 17.8136C15.1822 17.8442 15.1543 17.8765 15.1838 17.9137C15.1838 17.9807 15.2685 17.9892 15.2874 17.9346C15.4673 17.9335 16.4437 17.9279 16.6245 17.9299C16.7555 17.9394 16.8203 17.8632 16.8231 17.7781L16.886 17.4111C16.8964 17.3499 16.8107 17.3237 16.7849 17.38Z" fill="white" style="fill:white;fill-opacity:1;"/>
<path d="M15.9498 3.23105C15.895 0.641609 15.8916 1.20133 15.945 0.394284C15.9481 0.346436 15.912 0.305092 15.8642 0.301823C12.0083 0.0380793 11.8622 0.00766905 11.5634 0.00766905C6.30329 0.00724717 9.06486 -0.0787102 2.0437 0.335467C1.996 0.338315 1.95954 0.379096 1.96203 0.426768C2.41453 9.10836 2.39801 7.69212 2.16686 13.4782C2.1652 13.5197 2.19322 13.5566 2.23372 13.5662C2.75921 13.6904 2.66608 13.6415 3.89187 13.6424C3.89388 13.643 6.18903 13.3923 6.1911 13.3921C6.20193 13.3939 9.36492 13.913 9.37592 13.913C9.37835 13.913 9.38074 13.9129 9.38316 13.9127C13.0901 13.6021 12.0276 13.6771 14.4191 13.5446L15.8233 13.8286C15.878 13.8396 15.9281 13.7974 15.9275 13.7425C15.897 10.9153 15.9498 3.23105 15.9498 3.23105ZM10.2496 3.02497C10.26 3.02243 10.2749 3.01878 10.2936 3.01382L11.2931 2.78857C11.8051 2.66029 11.8807 2.62903 12.3188 2.42305C12.5211 2.49323 13.0758 2.80014 13.2164 2.97634C13.3093 3.09299 13.3032 3.11894 13.274 3.24385C13.2683 3.26783 13.2619 3.29542 13.2551 3.32801C13.2547 3.33016 13.2543 3.33237 13.254 3.33455L13.0342 5.05454C12.8167 5.06256 12.7986 5.0459 12.7385 4.99052C12.7136 4.9676 12.6827 4.93913 12.6282 4.9026C12.2975 4.68062 11.2152 3.87979 10.8734 3.60413L10.2016 3.06434L10.207 3.0591C10.2143 3.05186 10.2208 3.04212 10.2251 3.03281C10.2284 3.03017 10.2417 3.0269 10.2496 3.02497ZM11.8071 11.685C11.7875 11.6654 3.40812 2.78225 3.40197 2.76998L4.13403 2.20839L14.3642 8.98236C14.2796 9.22462 14.2459 9.50264 14.1951 9.73351C14.0153 10.5489 13.7842 10.9057 13.4228 11.6804C12.9055 11.7009 11.8427 11.697 11.8071 11.685ZM4.18466 9.28171C4.27884 9.05534 4.40832 8.69119 4.51717 8.50673C5.05225 8.8411 7.1425 10.9413 7.3243 11.2249C7.22361 11.2622 6.79112 11.3265 6.07255 11.6136C5.61728 11.7952 5.18739 11.9675 4.77216 11.8266C4.73074 11.8126 4.62035 11.7189 4.45666 11.5776C4.15769 11.3196 3.88695 11.1336 3.72952 11.0407C3.461 10.8822 3.50283 10.9156 4.18466 9.28171Z" fill="white" style="fill:white;fill-opacity:1;"/>
<path d="M3.03125 9.30026C2.96564 5.91632 3.03891 7.75964 2.65008 0.299805L2.0437 0.335559C1.996 0.338406 1.95954 0.379188 1.96203 0.42686L2.28488 6.62096C2.349 9.92963 2.36654 8.47968 2.16686 13.4782C2.1652 13.5198 2.19322 13.5567 2.23372 13.5662C2.53027 13.6364 2.65353 13.6521 2.86214 13.6521C2.8556 13.6298 2.8484 13.8765 3.03125 9.30026Z" fill="white" style="fill:white;fill-opacity:1;"/>
<path d="M7.75939 11.4163C7.75939 11.4163 8.11398 11.2942 7.82249 10.9743C6.63273 9.64733 5.90795 9.1666 5.21906 8.41081C4.93116 8.09915 4.51709 8.50689 4.51709 8.50689C7.20944 10.9001 6.67007 10.5537 7.14464 11.0119C7.20764 11.0727 7.25735 11.1208 7.32422 11.225C7.31178 11.2296 7.25676 11.2435 7.18061 11.2628C6.06046 11.5454 5.89241 11.7373 5.39224 11.8445C5.85901 12.2251 6.68209 11.7608 7.26889 11.5587C7.4092 11.5104 7.59507 11.4592 7.75939 11.4163Z" fill="white" style="fill:white;fill-opacity:1;"/>
<path d="M14.8737 8.278L5.09341 2.0408C4.76576 1.83187 4.4124 1.93241 4.13428 2.2086L14.3644 8.98257C14.2799 9.22483 14.2461 9.50285 14.1953 9.73372C14.0156 10.5491 13.7845 10.9059 13.4231 11.6806C13.4231 11.6806 14.3496 11.8587 14.632 11.2317C15.2948 9.82105 15.1418 9.55499 15.2997 9.10959C15.281 8.85836 15.3159 8.56003 14.8737 8.278Z" fill="white" style="fill:white;fill-opacity:1;"/>
<path d="M13.2552 3.3281C13.2547 3.33024 13.2544 3.33246 13.254 3.33464L13.0342 5.05463C13.0342 5.05463 13.9039 5.59175 14.0131 4.70862C14.0132 4.70834 14.0132 4.70806 14.0132 4.70778L14.1931 3.25374C14.1935 3.25153 14.1938 3.24928 14.1943 3.24706C14.2012 3.21374 14.2078 3.18554 14.2135 3.16104C14.2433 3.03335 14.2496 3.00681 14.1546 2.88755C14.0548 2.7624 13.6074 2.43207 13.274 2.21786C12.9594 2.00692 12.5858 2.26058 12.5858 2.26058C12.4925 2.33205 12.4092 2.39449 12.3188 2.42314C12.5473 2.54671 13.1263 2.86351 13.2164 2.97643C13.3093 3.09308 13.3032 3.11902 13.2739 3.24393C13.2683 3.26795 13.2619 3.29554 13.2552 3.3281Z" fill="white" style="fill:white;fill-opacity:1;"/>
</g>
</g>
<defs>
<clipPath id="clip0_10023_106181">
<rect width="18" height="18" fill="white" style="fill:white;fill-opacity:1;"/>
</clipPath>
<clipPath id="clip1_10023_106181">
<rect width="18" height="18" fill="white" style="fill:white;fill-opacity:1;"/>
</clipPath>
</defs>
</svg>
