<svg width="18" height="18" viewBox="0 0 18 18" fill="none" xmlns="http://www.w3.org/2000/svg">
<g clip-path="url(#clip0_10023_106552)">
<path d="M17.0042 10.5032C16.6982 10.4252 16.4342 10.3592 16.4342 10.1072C16.4342 9.90924 16.5842 9.78324 16.8242 9.78324C17.0462 9.77124 17.2502 9.92124 17.2922 10.1432L17.8922 9.85524C17.7302 9.45924 17.3402 9.21924 16.8422 9.21924C16.1942 9.21924 15.7442 9.61524 15.7442 10.1792C15.7442 10.8692 16.2422 11.0012 16.6862 11.1152C16.9982 11.1932 17.2622 11.2652 17.2622 11.5232C17.2622 11.7392 17.0882 11.8772 16.8242 11.8772C16.5602 11.8772 16.3382 11.7332 16.2782 11.5172L15.6782 11.8052C15.8462 12.2012 16.2722 12.4412 16.8002 12.4412C17.5022 12.4412 17.9522 12.0512 17.9522 11.4392C17.9522 10.7432 17.4242 10.6112 17.0042 10.5032Z" fill="white" style="fill:white;fill-opacity:1;"/>
<path d="M18.0001 6.4292V6.7472H17.4901V7.0472H17.9341L17.8501 7.3532H17.4901V7.8272H17.1421V6.4292H18.0001Z" fill="white" style="fill:white;fill-opacity:1;"/>
<path d="M16.2662 6.75313C16.4822 6.75313 16.6562 6.92713 16.6562 7.14313C16.6562 7.35913 16.4822 7.53313 16.2662 7.53313C16.0502 7.53313 15.8762 7.35913 15.8762 7.14313C15.8762 6.92713 16.0502 6.75313 16.2662 6.75313ZM16.2662 7.86913C16.6682 7.86913 16.9922 7.53913 16.9922 7.13713C16.9922 6.73513 16.6622 6.41113 16.2602 6.41113C15.8582 6.41113 15.5342 6.74113 15.5342 7.13713C15.5342 7.54513 15.8642 7.87513 16.2662 7.86913Z" fill="white" style="fill:white;fill-opacity:1;"/>
<path d="M9.87021 12.3513H10.5182V10.3053L11.9882 12.3513H12.6662V9.2373H12.0122V11.3133L10.5602 9.2373H9.72021L9.87021 9.5433V12.3513Z" fill="white" style="fill:white;fill-opacity:1;"/>
<path d="M14.8618 11.1632C14.7718 11.3852 14.5918 11.5592 14.3758 11.6552C14.2618 11.7032 14.1418 11.7272 14.0158 11.7272H13.6438V9.8672H14.0158C14.1418 9.8672 14.2618 9.8912 14.3758 9.9392C14.5978 10.0292 14.7718 10.2092 14.8618 10.4312C14.9578 10.6712 14.9578 10.9292 14.8618 11.1632ZM14.6458 9.3632C14.4478 9.2852 14.2378 9.2432 14.0278 9.2312H12.9658V12.3452H14.0278C14.4478 12.3452 14.8498 12.1892 15.1558 11.9012C15.2998 11.7632 15.4198 11.5952 15.4978 11.4092C15.7558 10.8212 15.6178 10.1372 15.1558 9.6932C15.0058 9.5552 14.8378 9.4412 14.6458 9.3632Z" fill="white" style="fill:white;fill-opacity:1;"/>
<path d="M4.15185 12.3513H2.29785V9.2373H4.15185V9.8433H2.97585V10.4733H4.04985L3.88785 11.0613H2.97585V11.7453L4.15185 11.7513V12.3513Z" fill="white" style="fill:white;fill-opacity:1;"/>
<path d="M8.38782 9.8433H9.56382V9.2373H7.71582V12.3513H9.56382V11.7513L8.38782 11.7453V11.0613H9.29982L9.46182 10.4733H8.38782V9.8433Z" fill="white" style="fill:white;fill-opacity:1;"/>
<path d="M10.74 8.01908C10.68 7.84508 10.65 7.66508 10.656 7.48508L10.668 5.56508H11.34L11.334 7.45508C11.334 7.66508 11.382 7.83308 11.478 7.95308C11.706 8.19308 12.09 8.19908 12.324 7.96508L12.336 7.95308C12.438 7.83308 12.486 7.66508 12.486 7.45508L12.492 5.55908H13.176L13.164 7.49708C13.164 7.67708 13.14 7.85708 13.08 8.03108C13.026 8.18108 12.936 8.31908 12.828 8.43908C12.714 8.55308 12.582 8.64308 12.432 8.69708C12.09 8.81708 11.718 8.81708 11.376 8.69108C11.226 8.63108 11.094 8.54708 10.986 8.42708C10.878 8.31308 10.794 8.17508 10.74 8.01908Z" fill="white" style="fill:white;fill-opacity:1;"/>
<path d="M7.36819 7.77916C7.28419 7.58116 7.24219 7.36516 7.24219 7.15516C7.24219 6.93916 7.29019 6.72916 7.37419 6.53116C7.45819 6.33916 7.57819 6.16516 7.72819 6.02116C7.87819 5.87116 8.05819 5.75716 8.25019 5.67916C8.44819 5.59516 8.66419 5.55316 8.88619 5.55916C9.18019 5.55315 9.47419 5.63116 9.73219 5.77516C9.97219 5.91316 10.1702 6.11716 10.2962 6.36916L9.68419 6.65716C9.61219 6.51316 9.49819 6.39316 9.36019 6.30916C9.21619 6.22516 9.04819 6.18916 8.88019 6.18916C8.75419 6.18916 8.62219 6.21316 8.50819 6.26116C8.39419 6.30916 8.29219 6.38116 8.20819 6.47116C8.11819 6.56116 8.05219 6.66916 8.00419 6.78316C7.90219 7.02916 7.90219 7.29916 7.99819 7.54516C8.08819 7.77916 8.27419 7.97116 8.50219 8.07316C8.62219 8.12716 8.74819 8.15716 8.88019 8.15116C9.07219 8.15716 9.26419 8.09716 9.42019 7.98916C9.56419 7.88716 9.66619 7.73116 9.70819 7.55716H8.59819L8.87419 6.99316H10.4222C10.4282 7.11316 10.4222 7.37116 10.4162 7.42516C10.3982 7.56916 10.3622 7.71316 10.3082 7.85116C10.1582 8.22316 9.86418 8.51116 9.49218 8.66116C8.88018 8.90716 8.18418 8.76316 7.71618 8.29516C7.56618 8.14516 7.45219 7.97116 7.36819 7.77916Z" fill="white" style="fill:white;fill-opacity:1;"/>
<path d="M0.156 8.36719V5.88919L0 5.56519H0.828V8.07919H2.07L1.896 8.69119H0L0.156 8.36719Z" fill="white" style="fill:white;fill-opacity:1;"/>
<path d="M0.156 12.0271V9.5491L0 9.2251H0.828V11.7391H2.07L1.896 12.3511H0L0.156 12.0271Z" fill="white" style="fill:white;fill-opacity:1;"/>
<path d="M4.15185 8.69115H2.29785V5.57715H4.15185V6.18315H2.97585V6.81315H4.04985L3.88785 7.40115H2.97585V8.07915L4.15185 8.08515V8.69115Z" fill="white" style="fill:white;fill-opacity:1;"/>
<path d="M15.3241 8.69115H13.4761V5.57715H15.3301V6.18315H14.1541V6.81315H15.2281L15.0661 7.40115H14.1541V8.07915L15.3301 8.08515V8.69115L15.3241 8.69115Z" fill="white" style="fill:white;fill-opacity:1;"/>
<path d="M5.92816 6.44119L6.31816 7.49119H5.52016L5.92816 6.44119ZM5.05816 8.69119L5.29216 8.08519H6.54016L6.78016 8.69119H7.48216L6.22816 5.56519H5.26816L5.47216 5.97319L4.36816 8.69119H5.05816Z" fill="white" style="fill:white;fill-opacity:1;"/>
<path d="M5.55607 12.3991C5.67007 12.4231 5.78407 12.4351 5.90407 12.4351C6.11407 12.4411 6.32407 12.3991 6.52207 12.3211C6.89407 12.1711 7.18807 11.8831 7.33807 11.5111C7.39207 11.3731 7.42807 11.2291 7.44607 11.0851C7.45807 10.9411 7.45807 10.7971 7.45207 10.6471H5.90407V10.6531L5.62807 11.2171H6.73207C6.69007 11.3911 6.58807 11.5471 6.44407 11.6491C6.28807 11.7631 6.10207 11.8171 5.91007 11.8111C5.85007 11.8111 5.79607 11.8051 5.73607 11.7931L5.59807 11.7571C5.57407 11.7511 5.55607 11.7391 5.53207 11.7331C5.30407 11.6311 5.11807 11.4451 5.02807 11.2051C4.93207 10.9591 4.93207 10.6831 5.03407 10.4371C5.08207 10.3231 5.15407 10.2151 5.23807 10.1251C5.32207 10.0351 5.43007 9.96915 5.54407 9.92115C5.66407 9.87315 5.79007 9.84915 5.91607 9.84915C6.08407 9.84315 6.25207 9.88515 6.39607 9.96915C6.53407 10.0531 6.64807 10.1731 6.72007 10.3171L7.33207 10.0291C7.20607 9.77715 7.01407 9.57315 6.76807 9.43515C6.51007 9.29115 6.22207 9.21915 5.92207 9.21915C5.49007 9.21315 5.07607 9.38115 4.76407 9.68715C4.61407 9.83115 4.49407 10.0051 4.41007 10.1971C4.23607 10.5931 4.23607 11.0491 4.40407 11.4451C4.48807 11.6371 4.60207 11.8111 4.74607 11.9611C4.87807 12.0931 5.03407 12.2011 5.20207 12.2851C5.32007 12.3383 5.43807 12.3814 5.55607 12.3991Z" fill="white" style="fill:white;fill-opacity:1;"/>
</g>
<defs>
<clipPath id="clip0_10023_106552">
<rect width="18" height="6.8826" fill="white" style="fill:white;fill-opacity:1;" transform="translate(0 5.55859)"/>
</clipPath>
</defs>
</svg>
